Coordinates
version=1
nRows=37
nColumns=19
inDegrees=yes

Units are S.I. units (second, meters, Newtons, ...)
If the header above contains a line with 'inDegrees', this indicates whether rotational values are in degrees (yes) or radians (no).

endheader
time	pelvis_tilt	pelvis_list	pelvis_rotation	pelvis_tx	pelvis_ty	pelvis_tz	hip_flexion_r	hip_adduction_r	hip_rotation_r	knee_angle_r	knee_angle_r_beta	ankle_angle_r	hip_flexion_l	hip_adduction_l	hip_rotation_l	knee_angle_l	knee_angle_l_beta	ankle_angle_l
     13.14666667	     -5.55262292	     10.85487301	      2.30480678	      2.22593206	      1.03929817	      1.02293672	    -13.36074663	    -16.22331963	    -18.65840217	     86.93869839	      1.51736653	    -27.36022907	     27.53040415	     11.92908540	    -13.77318657	     11.38781112	      0.19875480	     -1.49014341
     13.15333333	     -5.96396401	     11.54151676	      2.80824115	      2.22445703	      1.03286246	      1.02174401	    -11.57963231	    -17.30496520	    -18.22769306	     90.88165936	      1.58618419	    -26.82725024	     28.64286879	     12.22434918	    -15.39333483	     15.11240751	      0.26376127	     -0.93801695
     13.16000000	     -6.45845114	     12.14642780	      3.28284827	      2.22283027	      1.02617288	      1.02082134	     -9.55845052	    -18.26322727	    -17.56238495	     94.75234973	      1.65374048	    -26.27537152	     29.80085989	     12.35730602	    -16.85656603	     19.04762965	      0.33244385	     -0.11564944
     13.16666667	     -6.98936392	     12.64133856	      3.70574553	      2.22096895	      1.01943024	      1.02020637	     -7.31151338	    -19.04893995	    -16.64106801	     98.52615380	      1.71960578	    -25.72628572	     30.90596561	     12.34464795	    -18.02695509	     23.03386384	      0.40201676	      1.00506306
     13.17333333	     -7.51563665	     13.01733036	      4.08364797	      2.21892391	      1.01287599	      1.01985278	     -4.88212473	    -19.63242730	    -15.49769028	    102.15415624	      1.78292637	    -25.24135904	     31.84957085	     12.25448187	    -18.77549713	     26.88997449	      0.46931859	      2.51143205
     13.18000000	     -8.05821175	     13.27176952	      4.40780651	      2.21653673	      1.00659967	      1.01972928	     -2.20912418	    -20.01084452	    -14.12108635	    105.64113348	      1.84378560	    -24.80632945	     32.65852714	     12.11059216	    -19.13906006	     30.55466717	      0.53327954	      4.35987478
     13.18666667	     -8.57219996	     13.41154491	      4.72009465	      2.21386890	      1.00081367	      1.01971848	      0.60092547	    -20.20704532	    -12.63989874	    108.92630384	      1.90112264	    -24.39361788	     33.25455293	     11.98774486	    -19.05435435	     33.92752925	      0.59214709	      6.51284870
     13.19333333	     -9.03501510	     13.40821262	      4.91421556	      2.21093755	      0.99568362	      1.01991074	      3.59631869	    -20.15361711	    -10.94744436	    111.98900950	      1.95457694	    -24.00591231	     33.59319974	     11.79151870	    -18.73019672	     36.94219935	      0.64476301	      8.90112218
     13.20000000	     -9.40764169	     13.27385485	      5.06299425	      2.20781771	      0.99136025	      1.02017205	      6.64792731	    -19.87926520	     -9.20863755	    114.76359650	      2.00300262	    -23.60801213	     33.60475768	     11.58214047	    -18.10646580	     39.53474984	      0.69001155	     11.43031394
     13.20666667	     -9.52623682	     13.03085166	      5.06493943	      2.20466689	      0.98814594	      1.02060829	      9.57203593	    -19.38238973	     -7.41280513	    117.18414831	      2.04524922	    -23.22306660	     33.07601722	     11.29966361	    -17.36385297	     41.63611185	      0.72668724	     14.02752477
     13.21333333	     -9.37987918	     12.59446196	      5.09456405	      2.20195834	      0.98626946	      1.02099539	     12.16106331	    -18.59310416	     -5.86299706	    119.09511141	      2.07860182	    -22.75995046	     31.93131434	     10.94125065	    -16.34014660	     43.20391870	      0.75405063	     16.56971555
     13.22000000	     -7.85071495	     11.70393541	      5.38029195	      2.20139568	      0.98794873	      1.02122204	     12.63132422	    -17.19457516	     -5.41160048	    119.79275876	      2.09077806	    -22.35981151	     28.74980235	     10.29960983	    -14.66471681	     44.05965512	      0.76898605	     19.04793907
     13.22666667	     -5.51559949	     10.80508150	      5.50932851	      2.20155331	      0.99170551	      1.02138683	     12.10209926	    -15.74234615	     -5.14509367	    119.89008728	      2.09247676	    -21.83122556	     24.28199782	      9.51620054	    -13.02723973	     44.15509620	      0.77065181	     21.24634488
     13.23333333	     -3.98345721	      9.54728251	      5.53319368	      2.20113838	      0.99497005	      1.02140412	     12.73119779	    -13.90730461	     -4.67086760	    119.91809453	      2.09296558	    -21.09014622	     20.61371778	      8.24018720	    -11.63380097	     43.97387322	      0.76748887	     23.07601787
     13.24000000	     -2.73221994	      8.57601859	      5.13805917	      2.20042175	      0.99823011	      1.02142770	     13.88413249	    -12.41263259	     -3.66023452	    119.92755635	      2.09313072	    -20.07531331	     16.99606294	      7.14333289	    -10.86126702	     43.16923237	      0.75344524	     24.48789799
     13.24666667	     -2.39032503	      7.53033606	      4.63241560	      2.19925656	      1.00071811	      1.02130317	     16.19666964	    -10.87297840	     -2.45590958	    119.92921656	      2.09315970	    -18.85901637	     14.29277436	      6.02226713	    -10.37177301	     42.11674450	      0.73507586	     25.39260788
     13.25333333	     -2.69672195	      6.65380646	      3.85818932	      2.19782210	      1.00258135	      1.02124125	     19.34542708	     -9.48046680	     -0.94448014	    119.92352331	      2.09306033	    -17.46891179	     12.17017665	      5.11179939	    -10.32470338	     40.77708188	      0.71169434	     25.77692636
     13.26000000	     -3.98339377	      5.89003469	      2.88639454	      2.19607346	      1.00335502	      1.02139110	     23.68800002	     -8.06761323	      0.79633725	    119.90844348	      2.09279714	    -16.03090369	     11.09575862	      4.36042158	    -10.65771008	     39.37709225	      0.68725991	     25.63859963
     13.26666667	     -5.94758869	      5.57581428	      1.68578405	      2.19421627	      1.00324883	      1.02180875	     28.82578592	     -6.90442940	      2.85441035	    119.86961513	      2.09211946	    -14.55490813	     10.67521113	      4.11181966	    -11.34818543	     37.81129318	      0.65993156	     24.91333284
     13.27333333	     -7.80297484	      5.88245002	      0.25998697	      2.19260508	      1.00319745	      1.02248544	     33.79693032	     -6.14122772	      5.20391117	    119.69173635	      2.08901489	    -13.04858914	      9.96807437	      4.54004938	    -12.36210425	     35.84670300	      0.62564299	     23.52033468
     13.28000000	     -9.35392074	      5.65982347	     -0.73238567	      2.19250089	      1.00466815	      1.02274866	     37.82652718	     -4.91148657	      6.52730974	    118.70248044	      2.07174911	    -11.56390929	      8.83269311	      4.49528742	    -12.89969578	     33.72918451	      0.58868532	     21.57415994
     13.28666667	    -10.47197053	      4.92330339	     -1.37456705	      2.19397202	      1.00802317	      1.02254078	     40.76883382	     -3.47705378	      6.86628089	    116.90625735	      2.04039911	    -10.20861930	      7.04843117	      4.00970412	    -13.06274732	     31.28003054	      0.54593952	     18.90001071
     13.29333333	    -11.30534324	      4.17512489	     -2.05080527	      2.19610735	      1.01217157	      1.02239325	     43.13207806	     -2.09459453	      7.00223304	    114.76043715	      2.00294748	     -8.88286162	      4.88340063	      3.55003619	    -13.35284301	     28.58789655	      0.49895292	     15.54662610
     13.30000000	    -11.91915256	      3.33356919	     -2.61668712	      2.19871586	      1.01685155	      1.02210798	     45.00301556	     -0.84275070	      6.78162705	    112.32148735	      1.96037977	     -7.56947589	      2.50803063	      3.02185900	    -13.68187717	     25.83444919	      0.45089620	     11.60947589
     13.30666667	    -12.32271625	      2.36253452	     -3.01297959	      2.20167751	      1.02202301	      1.02170062	     46.40102333	      0.29421634	      6.19464433	    109.61794230	      1.91319401	     -6.21622623	      0.00181830	      2.35002420	    -14.08422643	     23.15089310	      0.40405931	      7.10294234
     13.31333333	    -12.79997660	      1.36930827	     -3.30503828	      2.20467185	      1.02714715	      1.02131158	     47.74595500	      1.28937074	      5.38262078	    106.71879925	      1.86259442	     -5.03424422	     -2.22545686	      1.58562058	    -14.75877348	     20.73076743	      0.36182015	      2.27771731
     13.32000000	    -14.03206027	      0.49668349	     -3.18905233	      2.20742997	      1.03126128	      1.02063961	     49.80476915	      1.84197088	      4.25841305	    103.72131883	      1.81027852	     -3.89541814	     -3.15106584	      0.71166424	    -15.61607087	     19.12834616	      0.33385262	     -2.70603130
     13.32666667	    -13.42739068	     -0.74295019	     -3.40928855	      2.21103013	      1.03768882	      1.01999874	     49.57642247	      2.69424695	      3.02746673	    100.39031564	      1.75214154	     -2.81143756	     -6.33696685	     -0.29289778	    -17.00423667	     16.90709972	      0.29508456	     -7.86357512
     13.33333333	    -13.79014293	     -1.75239022	     -3.37777859	      2.21412152	      1.04263372	      1.01930764	     50.37937167	      3.18833258	      1.70053450	     97.02722990	      1.69344463	     -1.85720827	     -7.90116925	     -1.34891558	    -18.84675270	     15.76329248	      0.27512135	    -12.71915648
     13.34000000	    -13.92400421	     -2.72988545	     -3.13905914	      2.21715272	      1.04762835	      1.01839137	     50.79520618	      3.39503537	      0.15880867	     93.53942185	      1.63257089	     -0.90098924	     -9.42333700	     -2.49050598	    -21.02181661	     15.13588227	      0.26417098	    -17.25254311
     13.34666667	    -13.46062031	     -3.77754638	     -2.66857951	      2.22011710	      1.05309982	      1.01710181	     50.40239445	      3.39850187	     -1.65555379	     89.88502097	      1.56878956	      0.08452095	    -11.34187071	     -3.81161675	    -23.43843806	     14.98729703	      0.26157768	    -21.26792583
     13.35333333	    -13.19046574	     -4.71500054	     -2.23399956	      2.22284146	      1.05793059	      1.01612211	     50.14677797	      3.37736460	     -3.42947901	     86.14132597	      1.50344976	      0.89604624	    -12.80873777	     -5.18750316	    -26.15740885	     15.44450185	      0.26955741	    -24.53292678
     13.36000000	    -12.87729570	     -5.60376987	     -1.80396956	      2.22526312	      1.06233292	      1.01541967	     49.76782354	      3.37700190	     -5.20814085	     82.30302631	      1.43645879	      1.56813048	    -14.12210745	     -6.68281426	    -29.04435393	     16.49242402	      0.28784710	    -26.92276976
     13.36666667	    -12.73982639	     -6.39155983	     -1.57159934	      2.22735312	      1.06600749	      1.01538046	     49.52815066	      3.55293620	     -6.78749537	     78.37704509	      1.36793749	      2.02999404	    -15.15593846	     -8.17455368	    -31.94779242	     18.00494478	      0.31424557	    -28.47256855
     13.37333333	    -11.84779490	     -7.33092932	     -0.93286447	      2.22929232	      1.07023169	      1.01515842	     48.29236449	      3.62758528	     -8.78237961	     74.24367016	      1.29579649	      2.48739204	    -16.88799759	     -9.90568398	    -33.99733900	     19.72597266	      0.34428317	    -29.36207612
     13.38000000	    -11.37026791	     -8.12719700	     -0.58766967	      2.23078002	      1.07341111	      1.01577582	     47.48580764	      3.94509338	    -10.46310657	     70.03243339	      1.22229655	      2.68745029	    -18.11156983	    -11.51485308	    -35.75499272	     21.83336510	      0.38106411	    -29.51692364
     13.38666667	    -10.89821180	     -8.85981845	     -0.30381553	      2.23189248	      1.07615166	      1.01703414	     46.61529909	      4.43819455	    -11.95836901	     65.68724809	      1.14645876	      2.71873107	    -19.22932021	    -13.02073285	    -36.70282116	     24.16676326	      0.42178959	    -29.23687798
